<?xml version="1.0" standalone="no"?>
<!DOCTYPE svg PUBLIC "-//W3C//DTD SVG 20010904//EN"
 "http://www.w3.org/TR/2001/REC-SVG-20010904/DTD/svg10.dtd">
<svg version="1.0" xmlns="http://www.w3.org/2000/svg"
 width="500.000000pt" height="500.000000pt" viewBox="0 0 500.000000 500.000000"
 preserveAspectRatio="xMidYMid meet">

<g transform="translate(0.000000,500.000000) scale(0.100000,-0.100000)"
fill="#000000" stroke="none">
<path d="M0 2500 l0 -2500 2500 0 2500 0 0 2500 0 2500 -2500 0 -2500 0 0
-2500z m2197 1195 c45 -31 49 -116 10 -192 -20 -38 -80 -89 -125 -106 -43 -15
-41 -23 37 -206 95 -221 113 -307 88 -427 -19 -89 -43 -136 -100 -200 -84 -93
-206 -140 -347 -132 -141 8 -254 78 -310 193 -22 43 -25 64 -25 150 0 117 17
165 86 240 136 147 338 148 424 1 33 -57 45 -145 22 -165 -30 -24 -54 -5 -60
50 -12 99 -69 154 -162 153 -64 0 -120 -29 -173 -89 -49 -56 -72 -119 -72
-199 0 -74 23 -129 75 -180 61 -61 114 -80 225 -81 84 0 102 3 158 29 123 57
194 172 195 316 0 91 -16 149 -87 313 -30 68 -60 142 -67 165 l-12 42 -86 0
c-94 0 -178 18 -244 51 -55 29 -166 142 -197 201 -23 44 -24 49 -8 64 24 24
40 13 91 -63 83 -123 174 -173 327 -181 l97 -5 5 65 c7 90 60 180 118 201 31
11 96 6 117 -8z m1084 -11 c262 -77 328 -376 126 -575 l-49 -48 30 -44 c53
-76 75 -159 69 -258 -8 -146 -75 -255 -194 -314 -52 -27 -68 -29 -158 -30 -90
0 -106 3 -158 29 -101 49 -144 152 -103 249 29 70 118 116 188 97 62 -18 131
-111 114 -156 -9 -22 -48 -14 -62 14 -41 82 -104 98 -156 41 -52 -55 -30 -142
45 -180 58 -30 159 -37 224 -15 150 50 227 223 175 392 -12 38 -35 85 -51 105
l-30 36 -63 -14 c-88 -21 -166 -12 -195 22 -29 33 -29 65 -1 100 20 26 24 27
92 23 42 -3 91 -14 120 -26 l49 -22 34 21 c105 65 159 243 104 345 -40 76 -85
113 -170 138 -95 28 -228 14 -323 -35 -126 -64 -228 -259 -228 -434 0 -56 -14
-85 -40 -85 -34 0 -42 33 -31 129 20 165 69 278 159 368 117 118 326 173 483
127z m-66 -113 c0 -13 -9 -29 -20 -35 -86 -48 -116 -101 -190 -334 -130 -411
-167 -495 -265 -594 -55 -55 -76 -69 -125 -83 -101 -30 -213 -6 -272 57 -77
82 -68 230 21 335 69 82 239 102 224 26 -2 -14 -16 -19 -60 -24 -70 -8 -117
-40 -147 -102 -57 -117 11 -237 134 -237 74 0 115 19 175 78 90 91 119 158
254 582 65 202 105 281 166 328 53 41 105 42 105 3z m-1742 -1583 c32 -10 41
-10 45 0 5 15 208 17 217 2 3 -5 -1 -10 -9 -10 -9 0 -16 -7 -16 -15 0 -10 -14
-17 -40 -21 -30 -5 -40 -11 -40 -25 0 -11 7 -19 15 -19 8 0 15 -7 15 -15 0 -8
-4 -15 -10 -15 -14 0 -12 -27 3 -33 7 -3 5 -6 -5 -6 -21 -1 -25 -21 -5 -21 8
0 14 -12 14 -30 0 -23 -5 -30 -19 -30 -25 0 -51 26 -42 41 3 6 0 15 -7 20 -9
6 -10 12 -4 17 11 8 12 49 1 73 -4 9 -6 22 -4 30 4 19 -81 28 -183 19 -46 -4
-74 -8 -61 -9 27 -1 30 -21 2 -21 -11 0 -20 -4 -20 -10 0 -6 35 -10 83 -11 45
-1 74 -3 65 -6 -26 -7 -22 -22 10 -34 25 -10 26 -12 10 -23 -21 -15 -23 -32
-5 -39 6 -3 1 -6 -12 -6 -18 -1 -22 -5 -18 -21 5 -19 0 -20 -63 -20 -83 0
-130 9 -130 24 0 18 82 38 124 31 29 -6 36 -4 36 8 0 9 8 21 18 26 13 8 3 11
-43 12 -33 1 -73 4 -89 8 -33 7 -47 30 -19 32 16 1 16 2 1 6 -21 5 -23 19 -5
27 10 5 10 7 0 12 -20 9 -15 21 10 29 19 6 19 8 4 12 -9 2 -15 9 -12 14 9 13
141 11 188 -3z m336 6 c28 -6 32 -10 27 -29 -5 -18 -1 -24 17 -29 18 -5 19 -8
7 -16 -12 -8 -13 -11 -1 -22 11 -11 16 -9 28 10 9 12 23 22 32 22 13 0 13 2 2
9 -16 11 -6 31 16 31 9 0 13 6 9 15 -6 16 15 19 46 7 20 -8 12 -25 -17 -36
-16 -6 -17 -9 -5 -17 12 -7 11 -10 -7 -15 -22 -6 -41 -34 -23 -34 19 0 10 -21
-12 -30 -13 -5 -17 -9 -10 -9 17 -1 15 -21 -3 -21 -18 0 -18 -4 -6 -48 10 -35
3 -39 -46 -26 -26 7 -31 24 -8 24 13 0 13 3 3 21 -10 17 -10 23 0 26 19 7 14
23 -8 23 -22 0 -27 15 -7 23 6 3 3 6 -8 6 -25 1 -52 40 -35 51 8 5 4 9 -11 13
-19 5 -20 8 -10 21 11 13 10 17 -10 25 -29 12 -6 14 40 5z m265 -6 c7 -7 11
-20 9 -29 -4 -13 3 -19 24 -22 27 -4 27 -4 -4 -6 -32 -1 -43 -14 -23 -26 6 -3
10 -15 10 -25 0 -10 6 -21 13 -23 7 -3 4 -6 -6 -6 -31 -2 -13 -25 24 -33 l34
-7 -37 3 c-21 1 -38 -2 -38 -6 0 -4 32 -8 70 -8 56 0 70 -3 70 -15 0 -8 5 -15
11 -15 5 0 7 -4 4 -10 -7 -11 -115 -14 -163 -4 -19 4 -29 11 -26 19 3 7 0 16
-6 20 -6 4 -8 16 -4 27 4 13 1 24 -7 29 -10 6 -11 9 -1 9 6 0 12 11 12 25 0
14 -4 25 -10 25 -5 0 -7 7 -4 15 4 8 1 15 -5 15 -6 0 -11 5 -11 10 0 6 7 10
15 10 8 0 15 5 15 10 0 6 -4 10 -10 10 -5 0 -10 5 -10 10 0 14 38 12 54 -2z
m624 1 c17 -7 22 -13 14 -18 -6 -4 -11 -20 -10 -36 1 -17 -2 -38 -6 -47 -6
-14 -3 -18 10 -19 17 -1 17 -2 2 -6 -10 -2 -18 -8 -18 -13 0 -5 8 -13 18 -19
16 -9 16 -11 -3 -25 -17 -14 -18 -17 -5 -26 12 -8 11 -10 -8 -10 -13 0 -20 -4
-17 -10 7 -12 -174 -14 -192 -2 -18 12 -4 52 18 52 11 0 19 5 19 10 0 6 -9 10
-21 10 -21 0 -21 16 -3 83 4 11 0 17 -10 17 -9 0 -16 9 -16 20 0 13 7 20 20
20 11 0 20 5 20 10 0 11 -15 12 -48 4 -14 -4 -21 -12 -18 -20 4 -11 -12 -14
-80 -14 -90 0 -127 11 -118 35 5 12 42 14 215 14 118 0 222 -4 237 -10z m247
-14 c0 -11 6 -25 13 -30 16 -13 11 -147 -6 -153 -6 -2 -9 -9 -6 -16 6 -16 -37
-26 -116 -26 -42 0 -59 4 -64 15 -3 8 -11 15 -19 15 -10 0 -13 14 -11 50 1 32
-2 50 -9 50 -9 0 -9 2 -1 8 16 10 28 52 15 52 -23 0 -9 27 22 42 21 11 57 15
107 14 68 -1 75 -3 75 -21z m259 -2 c0 -13 5 -23 13 -23 11 0 13 -16 9 -72 -8
-127 -7 -126 -122 -127 -55 -1 -73 3 -78 14 -3 8 -11 15 -18 15 -9 0 -13 17
-13 55 0 30 3 55 8 55 4 0 7 11 7 25 0 14 -4 25 -10 25 -22 0 -8 21 28 40 28
15 53 19 107 17 66 -2 70 -3 69 -24z m286 21 c0 -16 -53 -54 -76 -54 -17 0
-24 -5 -24 -20 0 -11 5 -20 10 -20 6 0 10 -7 10 -15 0 -8 -4 -15 -10 -15 -5 0
-10 -7 -10 -15 0 -8 6 -15 13 -15 8 0 7 -4 -3 -10 -10 -6 -11 -13 -5 -17 18
-14 15 -63 -4 -63 -34 1 -47 23 -48 80 -1 128 3 119 -50 122 -26 2 -48 9 -51
16 -2 6 3 12 12 12 9 0 16 5 16 10 0 6 43 10 110 10 61 0 110 -3 110 -6z m209
0 c17 -4 31 -12 31 -19 0 -17 -32 -24 -110 -26 -36 -1 -55 -4 -42 -6 27 -5 29
-23 2 -23 -11 0 -20 -4 -20 -10 0 -6 35 -10 83 -11 45 -1 74 -3 64 -6 -24 -6
-16 -27 11 -31 25 -4 31 -32 7 -32 -18 0 -20 -26 -2 -33 6 -3 2 -6 -10 -6 -24
-1 -32 -26 -10 -34 18 -8 -135 -8 -172 -1 -37 8 -42 34 -7 34 14 0 28 5 32 11
4 7 25 9 60 4 49 -6 54 -5 54 13 0 11 6 23 13 25 6 3 -15 6 -48 7 -33 1 -73 5
-89 9 -33 7 -47 30 -19 32 16 1 16 2 1 6 -21 5 -23 19 -5 27 9 5 9 7 -2 12
-11 5 -8 11 10 25 20 16 21 19 6 19 -10 0 -15 5 -12 10 7 11 125 14 174 4z
m-1796 -11 c-7 -2 -21 -2 -30 0 -10 3 -4 5 12 5 17 0 24 -2 18 -5z m245 -20
c-10 -2 -26 -2 -35 0 -10 3 -2 5 17 5 19 0 27 -2 18 -5z m-271 -9 c-3 -3 -12
-4 -19 -1 -8 3 -5 6 6 6 11 1 17 -2 13 -5z m-314 -21 c-7 -2 -21 -2 -30 0 -10
3 -4 5 12 5 17 0 24 -2 18 -5z m1750 0 c-7 -2 -21 -2 -30 0 -10 3 -4 5 12 5
17 0 24 -2 18 -5z m-1880 -20 c-7 -2 -19 -2 -25 0 -7 3 -2 5 12 5 14 0 19 -2
13 -5z m250 0 c-7 -2 -19 -2 -25 0 -7 3 -2 5 12 5 14 0 19 -2 13 -5z m1760 0
c-7 -2 -19 -2 -25 0 -7 3 -2 5 12 5 14 0 19 -2 13 -5z m240 0 c-7 -2 -21 -2
-30 0 -10 3 -4 5 12 5 17 0 24 -2 18 -5z m-1226 -24 c16 -16 5 -39 -18 -39
-10 0 -19 -4 -19 -10 0 -5 -26 -10 -57 -11 -42 0 -52 -3 -38 -9 11 -5 41 -6
67 -3 40 5 48 3 58 -17 21 -40 7 -50 -73 -50 -63 0 -77 3 -93 21 -14 16 -15
23 -6 26 16 6 16 23 -1 23 -14 0 -15 49 -2 69 9 15 168 14 182 0z m-620 -55
c-3 -3 -12 -4 -19 -1 -8 3 -5 6 6 6 11 1 17 -2 13 -5z m105 -289 c24 31 37 26
15 -5 -14 -20 -13 -24 4 -41 10 -10 19 -25 19 -31 0 -7 -10 -1 -21 15 -22 29
-39 28 -39 -4 0 -11 -4 -17 -10 -14 -12 7 -14 88 -2 99 4 4 8 -4 10 -18 l3
-27 21 26z m175 -57 c-2 -18 -4 -6 -4 27 0 33 2 48 4 33 2 -15 2 -42 0 -60z
m190 70 c-9 -8 -18 -32 -20 -58 l-4 -45 -1 52 c-2 40 -6 53 -19 56 -10 3 0 5
21 6 34 1 37 -1 23 -11z m368 1 c4 -6 4 -13 0 -17 -4 -4 -10 -1 -12 6 -3 6
-13 12 -24 12 -16 0 -19 -7 -19 -45 0 -38 3 -45 19 -45 11 0 21 6 24 13 2 6 8
9 12 5 13 -12 -6 -28 -35 -28 -29 0 -40 15 -40 55 0 40 11 55 40 55 16 0 32
-5 35 -11z m209 -4 c3 -8 1 -15 -4 -15 -6 0 -10 5 -10 10 0 6 -9 10 -20 10
-13 0 -20 -7 -20 -20 0 -14 7 -20 24 -20 13 0 26 -7 30 -15 10 -26 -5 -45 -34
-45 -29 0 -48 16 -35 28 4 4 10 1 12 -5 8 -22 43 -15 43 7 0 15 -7 20 -25 20
-14 0 -28 7 -31 15 -10 26 4 45 35 45 16 0 31 -6 35 -15z m210 0 c3 -8 1 -15
-4 -15 -6 0 -10 5 -10 10 0 6 -9 10 -20 10 -13 0 -20 -7 -20 -20 0 -14 7 -20
24 -20 13 0 26 -7 30 -15 10 -26 -5 -45 -34 -45 -29 0 -48 16 -35 28 4 4 10 1
12 -5 8 -22 43 -15 43 7 0 15 -7 20 -25 20 -14 0 -28 7 -31 15 -10 26 4 45 35
45 16 0 31 -6 35 -15z"/>
<path d="M2075 3616 c-26 -26 -45 -83 -45 -134 l0 -32 38 19 c70 36 110 99 92
146 -12 33 -53 33 -85 1z"/>
<path d="M3090 3080 c8 -5 35 -9 60 -9 34 0 40 2 25 9 -29 13 -104 13 -85 0z"/>
<path d="M2540 1911 c0 -22 5 -42 13 -44 7 -3 5 -6 -5 -6 -26 -1 -22 -27 5
-36 l22 -7 -25 -8 c-20 -6 -15 -8 26 -9 62 -1 114 8 114 20 0 5 -9 9 -20 9
-11 0 -20 5 -20 10 0 6 -18 10 -40 10 -36 0 -40 3 -40 25 0 22 4 25 39 25 43
0 55 9 45 34 -5 12 -20 16 -60 16 l-54 0 0 -39z m78 12 c-10 -2 -26 -2 -35 0
-10 3 -2 5 17 5 19 0 27 -2 18 -5z"/>
<path d="M2792 1921 c-2 -27 1 -30 30 -34 l33 -4 -36 -1 c-30 -2 -37 -6 -41
-26 -8 -40 13 -56 75 -56 62 0 71 10 57 59 -5 19 -5 31 1 31 5 0 9 11 9 24 0
27 -21 36 -85 36 -38 0 -41 -2 -43 -29z m91 2 c-7 -2 -21 -2 -30 0 -10 3 -4 5
12 5 17 0 24 -2 18 -5z m0 -100 c-7 -2 -19 -2 -25 0 -7 3 -2 5 12 5 14 0 19
-2 13 -5z"/>
<path d="M3060 1921 c0 -25 5 -30 28 -34 26 -4 26 -4 -4 -6 -25 -1 -33 -7 -38
-25 -11 -45 1 -56 63 -56 45 0 59 4 69 20 7 11 8 20 3 20 -5 0 -11 11 -13 25
-4 17 -1 25 9 25 10 0 12 6 7 23 -9 31 -22 37 -76 37 -46 0 -48 -1 -48 -29z
m83 2 c-7 -2 -21 -2 -30 0 -10 3 -4 5 12 5 17 0 24 -2 18 -5z m0 -100 c-7 -2
-19 -2 -25 0 -7 3 -2 5 12 5 14 0 19 -2 13 -5z"/>
</g>
</svg>
